<svg width="119" height="40" viewBox="0 0 119 40" fill="none" xmlns="http://www.w3.org/2000/svg">
<path d="M5.8125 32.5938C5.04171 32.5938 4.3025 32.2876 3.75747 31.7425C3.21244 31.1975 2.90625 30.4583 2.90625 29.6875V10.3125C2.90625 9.54171 3.21244 8.8025 3.75747 8.25747C4.3025 7.71244 5.04171 7.40625 5.8125 7.40625H21.3125C21.5694 7.40625 21.8158 7.50831 21.9975 7.68999C22.1792 7.87167 22.2812 8.11807 22.2812 8.375C22.2812 8.63193 22.1792 8.87833 21.9975 9.06001C21.8158 9.24169 21.5694 9.34375 21.3125 9.34375H5.8125C5.55557 9.34375 5.30917 9.44581 5.12749 9.62749C4.94581 9.80917 4.84375 10.0556 4.84375 10.3125V29.6875C4.84375 29.9444 4.94581 30.1908 5.12749 30.3725C5.30917 30.5542 5.55557 30.6562 5.8125 30.6562H25.1875C25.4444 30.6562 25.6908 30.5542 25.8725 30.3725C26.0542 30.1908 26.1562 29.9444 26.1562 29.6875V20C26.1562 19.7431 26.2583 19.4967 26.44 19.315C26.6217 19.1333 26.8681 19.0312 27.125 19.0312C27.3819 19.0312 27.6283 19.1333 27.81 19.315C27.9917 19.4967 28.0938 19.7431 28.0938 20V29.6875C28.0938 30.4583 27.7876 31.1975 27.2425 31.7425C26.6975 32.2876 25.9583 32.5938 25.1875 32.5938H5.8125Z" fill="#27C498"/>
<path d="M16.1859 24.5609L29.7484 10.9984C29.8384 10.9083 29.9099 10.8014 29.9586 10.6837C30.0074 10.566 30.0325 10.4399 30.0325 10.3125C30.0325 10.1851 30.0074 10.059 29.9586 9.94131C29.9099 9.82363 29.8384 9.7167 29.7484 9.62663C29.6583 9.53656 29.5514 9.46511 29.4337 9.41636C29.316 9.36762 29.1899 9.34253 29.0625 9.34253C28.9351 9.34253 28.809 9.36762 28.6913 9.41636C28.5736 9.46511 28.4667 9.53656 28.3766 9.62663L15.5 22.5052L10.3734 17.3766C10.2833 17.2866 10.1764 17.2151 10.0587 17.1664C9.94101 17.1176 9.81488 17.0925 9.6875 17.0925C9.56012 17.0925 9.43399 17.1176 9.31631 17.1664C9.19863 17.2151 9.0917 17.2866 9.00163 17.3766C8.91156 17.4667 8.84011 17.5736 8.79136 17.6913C8.74262 17.809 8.71753 17.9351 8.71753 18.0625C8.71753 18.1899 8.74262 18.316 8.79136 18.4337C8.84011 18.5514 8.91156 18.6583 9.00163 18.7484L14.8141 24.5609C14.9041 24.6511 15.011 24.7227 15.1287 24.7715C15.2464 24.8203 15.3726 24.8455 15.5 24.8455C15.6274 24.8455 15.7536 24.8203 15.8713 24.7715C15.989 24.7227 16.0959 24.6511 16.1859 24.5609Z" fill="#27C498"/>
<path d="M50.232 11.456V14.62H45.024V31H41.104V14.62H35.896V11.456H50.232ZM62.1642 31.196C60.3348 31.196 58.6548 30.7667 57.1242 29.908C55.5935 29.0493 54.3802 27.864 53.4842 26.352C52.5882 24.8213 52.1402 23.0947 52.1402 21.172C52.1402 19.268 52.5882 17.56 53.4842 16.048C54.3802 14.5173 55.5935 13.3227 57.1242 12.464C58.6548 11.6053 60.3348 11.176 62.1642 11.176C64.0122 11.176 65.6922 11.6053 67.2042 12.464C68.7348 13.3227 69.9388 14.5173 70.8162 16.048C71.7122 17.56 72.1602 19.268 72.1602 21.172C72.1602 23.0947 71.7122 24.8213 70.8162 26.352C69.9388 27.864 68.7348 29.0493 67.2042 29.908C65.6735 30.7667 63.9935 31.196 62.1642 31.196ZM62.1642 27.696C63.3402 27.696 64.3762 27.4347 65.2722 26.912C66.1682 26.3707 66.8682 25.6053 67.3722 24.616C67.8762 23.6267 68.1282 22.4787 68.1282 21.172C68.1282 19.8653 67.8762 18.7267 67.3722 17.756C66.8682 16.7667 66.1682 16.0107 65.2722 15.488C64.3762 14.9653 63.3402 14.704 62.1642 14.704C60.9882 14.704 59.9428 14.9653 59.0282 15.488C58.1322 16.0107 57.4322 16.7667 56.9282 17.756C56.4242 18.7267 56.1722 19.8653 56.1722 21.172C56.1722 22.4787 56.4242 23.6267 56.9282 24.616C57.4322 25.6053 58.1322 26.3707 59.0282 26.912C59.9428 27.4347 60.9882 27.696 62.1642 27.696Z" fill="#E9ECEF"/>
<path d="M81.9085 11.456C83.9619 11.456 85.7632 11.8573 87.3125 12.66C88.8805 13.4627 90.0845 14.6107 90.9245 16.104C91.7832 17.5787 92.2125 19.296 92.2125 21.256C92.2125 23.216 91.7832 24.9333 90.9245 26.408C90.0845 27.864 88.8805 28.9933 87.3125 29.796C85.7632 30.5987 83.9619 31 81.9085 31H75.0765V11.456H81.9085ZM81.7685 27.668C83.8219 27.668 85.4085 27.108 86.5285 25.988C87.6485 24.868 88.2085 23.2907 88.2085 21.256C88.2085 19.2213 87.6485 17.6347 86.5285 16.496C85.4085 15.3387 83.8219 14.76 81.7685 14.76H78.9965V27.668H81.7685ZM104.219 31.196C102.39 31.196 100.71 30.7667 99.1788 29.908C97.6482 29.0493 96.4348 27.864 95.5388 26.352C94.6428 24.8213 94.1948 23.0947 94.1948 21.172C94.1948 19.268 94.6428 17.56 95.5388 16.048C96.4348 14.5173 97.6482 13.3227 99.1788 12.464C100.71 11.6053 102.39 11.176 104.219 11.176C106.067 11.176 107.747 11.6053 109.259 12.464C110.79 13.3227 111.994 14.5173 112.871 16.048C113.767 17.56 114.215 19.268 114.215 21.172C114.215 23.0947 113.767 24.8213 112.871 26.352C111.994 27.864 110.79 29.0493 109.259 29.908C107.728 30.7667 106.048 31.196 104.219 31.196ZM104.219 27.696C105.395 27.696 106.431 27.4347 107.327 26.912C108.223 26.3707 108.923 25.6053 109.427 24.616C109.931 23.6267 110.183 22.4787 110.183 21.172C110.183 19.8653 109.931 18.7267 109.427 17.756C108.923 16.7667 108.223 16.0107 107.327 15.488C106.431 14.9653 105.395 14.704 104.219 14.704C103.043 14.704 101.998 14.9653 101.083 15.488C100.187 16.0107 99.4868 16.7667 98.9828 17.756C98.4788 18.7267 98.2268 19.8653 98.2268 21.172C98.2268 22.4787 98.4788 23.6267 98.9828 24.616C99.4868 25.6053 100.187 26.3707 101.083 26.912C101.998 27.4347 103.043 27.696 104.219 27.696Z" fill="#27C498"/>
</svg>
