<svg width="3" height="11" viewBox="0 0 3 11" fill="none" xmlns="http://www.w3.org/2000/svg">
<path d="M2.71875 9.5625C2.71875 9.88573 2.59035 10.1957 2.36179 10.4243C2.13323 10.6528 1.82323 10.7812 1.5 10.7812C1.17677 10.7812 0.866773 10.6528 0.638213 10.4243C0.409653 10.1957 0.28125 9.88573 0.28125 9.5625C0.28125 9.23927 0.409653 8.92927 0.638213 8.70071C0.866773 8.47215 1.17677 8.34375 1.5 8.34375C1.82323 8.34375 2.13323 8.47215 2.36179 8.70071C2.59035 8.92927 2.71875 9.23927 2.71875 9.5625ZM2.71875 5.5C2.71875 5.82323 2.59035 6.13323 2.36179 6.36179C2.13323 6.59035 1.82323 6.71875 1.5 6.71875C1.17677 6.71875 0.866773 6.59035 0.638213 6.36179C0.409653 6.13323 0.28125 5.82323 0.28125 5.5C0.28125 5.17677 0.409653 4.86677 0.638213 4.63821C0.866773 4.40965 1.17677 4.28125 1.5 4.28125C1.82323 4.28125 2.13323 4.40965 2.36179 4.63821C2.59035 4.86677 2.71875 5.17677 2.71875 5.5V5.5ZM2.71875 1.4375C2.71875 1.76073 2.59035 2.07073 2.36179 2.29929C2.13323 2.52785 1.82323 2.65625 1.5 2.65625C1.17677 2.65625 0.866773 2.52785 0.638213 2.29929C0.409653 2.07073 0.28125 1.76073 0.28125 1.4375C0.28125 1.11427 0.409653 0.804274 0.638213 0.575714C0.866773 0.347154 1.17677 0.21875 1.5 0.21875C1.82323 0.21875 2.13323 0.347154 2.36179 0.575714C2.59035 0.804274 2.71875 1.11427 2.71875 1.4375V1.4375Z" fill="#E9ECEF" fill-opacity="0.5"/>
</svg>
