<svg width="13" height="11" viewBox="0 0 13 11" fill="none" xmlns="http://www.w3.org/2000/svg">
<path d="M12.3594 0.8125H3.80469C3.74023 0.8125 3.6875 0.865234 3.6875 0.929688V1.75C3.6875 1.81445 3.74023 1.86719 3.80469 1.86719H12.3594C12.4238 1.86719 12.4766 1.81445 12.4766 1.75V0.929688C12.4766 0.865234 12.4238 0.8125 12.3594 0.8125ZM12.3594 4.97266H3.80469C3.74023 4.97266 3.6875 5.02539 3.6875 5.08984V5.91016C3.6875 5.97461 3.74023 6.02734 3.80469 6.02734H12.3594C12.4238 6.02734 12.4766 5.97461 12.4766 5.91016V5.08984C12.4766 5.02539 12.4238 4.97266 12.3594 4.97266ZM12.3594 9.13281H3.80469C3.74023 9.13281 3.6875 9.18555 3.6875 9.25V10.0703C3.6875 10.1348 3.74023 10.1875 3.80469 10.1875H12.3594C12.4238 10.1875 12.4766 10.1348 12.4766 10.0703V9.25C12.4766 9.18555 12.4238 9.13281 12.3594 9.13281ZM0.523438 1.33984C0.523437 1.44757 0.544656 1.55424 0.58588 1.65376C0.627105 1.75329 0.687528 1.84372 0.763702 1.91989C0.839875 1.99607 0.930305 2.05649 1.02983 2.09771C1.12935 2.13894 1.23603 2.16016 1.34375 2.16016C1.45147 2.16016 1.55815 2.13894 1.65767 2.09771C1.75719 2.05649 1.84763 1.99607 1.9238 1.91989C1.99997 1.84372 2.0604 1.75329 2.10162 1.65376C2.14284 1.55424 2.16406 1.44757 2.16406 1.33984C2.16406 1.23212 2.14284 1.12545 2.10162 1.02592C2.0604 0.926399 1.99997 0.835968 1.9238 0.759795C1.84763 0.683622 1.75719 0.623198 1.65767 0.581974C1.55815 0.540749 1.45147 0.519531 1.34375 0.519531C1.23603 0.519531 1.12935 0.540749 1.02983 0.581974C0.930305 0.623198 0.839875 0.683622 0.763702 0.759795C0.687528 0.835968 0.627105 0.926399 0.58588 1.02592C0.544656 1.12545 0.523437 1.23212 0.523438 1.33984V1.33984ZM0.523438 5.5C0.523437 5.60772 0.544656 5.7144 0.58588 5.81392C0.627105 5.91345 0.687528 6.00388 0.763702 6.08005C0.839875 6.15622 0.930305 6.21665 1.02983 6.25787C1.12935 6.29909 1.23603 6.32031 1.34375 6.32031C1.45147 6.32031 1.55815 6.29909 1.65767 6.25787C1.75719 6.21665 1.84763 6.15622 1.9238 6.08005C1.99997 6.00388 2.0604 5.91345 2.10162 5.81392C2.14284 5.7144 2.16406 5.60772 2.16406 5.5C2.16406 5.39228 2.14284 5.2856 2.10162 5.18608C2.0604 5.08656 1.99997 4.99612 1.9238 4.91995C1.84763 4.84378 1.75719 4.78335 1.65767 4.74213C1.55815 4.70091 1.45147 4.67969 1.34375 4.67969C1.23603 4.67969 1.12935 4.70091 1.02983 4.74213C0.930305 4.78335 0.839875 4.84378 0.763702 4.91995C0.687528 4.99612 0.627105 5.08656 0.58588 5.18608C0.544656 5.2856 0.523437 5.39228 0.523438 5.5V5.5ZM0.523438 9.66016C0.523437 9.76788 0.544656 9.87455 0.58588 9.97408C0.627105 10.0736 0.687528 10.164 0.763702 10.2402C0.839875 10.3164 0.930305 10.3768 1.02983 10.418C1.12935 10.4593 1.23603 10.4805 1.34375 10.4805C1.45147 10.4805 1.55815 10.4593 1.65767 10.418C1.75719 10.3768 1.84763 10.3164 1.9238 10.2402C1.99997 10.164 2.0604 10.0736 2.10162 9.97408C2.14284 9.87455 2.16406 9.76788 2.16406 9.66016C2.16406 9.55243 2.14284 9.44576 2.10162 9.34624C2.0604 9.24671 1.99997 9.15628 1.9238 9.08011C1.84763 9.00393 1.75719 8.94351 1.65767 8.90229C1.55815 8.86106 1.45147 8.83984 1.34375 8.83984C1.23603 8.83984 1.12935 8.86106 1.02983 8.90229C0.930305 8.94351 0.839875 9.00393 0.763702 9.08011C0.687528 9.15628 0.627105 9.24671 0.58588 9.34624C0.544656 9.44576 0.523437 9.55243 0.523438 9.66016V9.66016Z" fill="#E9ECEF"/>
</svg>
