<svg width="20" height="16" viewBox="0 0 20 16" fill="none" xmlns="http://www.w3.org/2000/svg">
<path d="M4.6875 0.520833H19.2708V2.60417H4.6875V0.520833ZM4.6875 8.85417V6.77083H19.2708V8.85417H4.6875ZM1.5625 0C1.9769 0 2.37433 0.16462 2.66735 0.457645C2.96038 0.750671 3.125 1.1481 3.125 1.5625C3.125 1.9769 2.96038 2.37433 2.66735 2.66735C2.37433 2.96038 1.9769 3.125 1.5625 3.125C1.1481 3.125 0.750671 2.96038 0.457646 2.66735C0.16462 2.37433 0 1.9769 0 1.5625C0 1.1481 0.16462 0.750671 0.457646 0.457645C0.750671 0.16462 1.1481 0 1.5625 0V0ZM1.5625 6.25C1.9769 6.25 2.37433 6.41462 2.66735 6.70765C2.96038 7.00067 3.125 7.3981 3.125 7.8125C3.125 8.2269 2.96038 8.62433 2.66735 8.91735C2.37433 9.21038 1.9769 9.375 1.5625 9.375C1.1481 9.375 0.750671 9.21038 0.457646 8.91735C0.16462 8.62433 0 8.2269 0 7.8125C0 7.3981 0.16462 7.00067 0.457646 6.70765C0.750671 6.41462 1.1481 6.25 1.5625 6.25V6.25ZM4.6875 15.1042V13.0208H19.2708V15.1042H4.6875ZM1.5625 12.5C1.9769 12.5 2.37433 12.6646 2.66735 12.9576C2.96038 13.2507 3.125 13.6481 3.125 14.0625C3.125 14.4769 2.96038 14.8743 2.66735 15.1674C2.37433 15.4604 1.9769 15.625 1.5625 15.625C1.1481 15.625 0.750671 15.4604 0.457646 15.1674C0.16462 14.8743 0 14.4769 0 14.0625C0 13.6481 0.16462 13.2507 0.457646 12.9576C0.750671 12.6646 1.1481 12.5 1.5625 12.5V12.5Z" fill="#202024"/>
</svg>
