<svg width="25" height="25" viewBox="0 0 25 25" fill="none" xmlns="http://www.w3.org/2000/svg">
<path d="M7.29175 5.20833H21.8751V7.29167H7.29175V5.20833ZM7.29175 13.5417V11.4583H21.8751V13.5417H7.29175ZM4.16675 4.6875C4.58115 4.6875 4.97858 4.85212 5.2716 5.14515C5.56463 5.43817 5.72925 5.8356 5.72925 6.25C5.72925 6.6644 5.56463 7.06183 5.2716 7.35485C4.97858 7.64788 4.58115 7.8125 4.16675 7.8125C3.75235 7.8125 3.35492 7.64788 3.06189 7.35485C2.76887 7.06183 2.60425 6.6644 2.60425 6.25C2.60425 5.8356 2.76887 5.43817 3.06189 5.14515C3.35492 4.85212 3.75235 4.6875 4.16675 4.6875ZM4.16675 10.9375C4.58115 10.9375 4.97858 11.1021 5.2716 11.3951C5.56463 11.6882 5.72925 12.0856 5.72925 12.5C5.72925 12.9144 5.56463 13.3118 5.2716 13.6049C4.97858 13.8979 4.58115 14.0625 4.16675 14.0625C3.75235 14.0625 3.35492 13.8979 3.06189 13.6049C2.76887 13.3118 2.60425 12.9144 2.60425 12.5C2.60425 12.0856 2.76887 11.6882 3.06189 11.3951C3.35492 11.1021 3.75235 10.9375 4.16675 10.9375ZM7.29175 19.7917V17.7083H21.8751V19.7917H7.29175ZM4.16675 17.1875C4.58115 17.1875 4.97858 17.3521 5.2716 17.6451C5.56463 17.9382 5.72925 18.3356 5.72925 18.75C5.72925 19.1644 5.56463 19.5618 5.2716 19.8549C4.97858 20.1479 4.58115 20.3125 4.16675 20.3125C3.75235 20.3125 3.35492 20.1479 3.06189 19.8549C2.76887 19.5618 2.60425 19.1644 2.60425 18.75C2.60425 18.3356 2.76887 17.9382 3.06189 17.6451C3.35492 17.3521 3.75235 17.1875 4.16675 17.1875Z" fill="#E9ECEF"/>
</svg>
