<svg width="85" height="30" viewBox="0 0 85 30" fill="none" xmlns="http://www.w3.org/2000/svg">
<path d="M4.5 24.75C3.90326 24.75 3.33097 24.5129 2.90901 24.091C2.48705 23.669 2.25 23.0967 2.25 22.5V7.5C2.25 6.90326 2.48705 6.33097 2.90901 5.90901C3.33097 5.48705 3.90326 5.25 4.5 5.25H16.5C16.6989 5.25 16.8897 5.32902 17.0303 5.46967C17.171 5.61032 17.25 5.80109 17.25 6C17.25 6.19891 17.171 6.38968 17.0303 6.53033C16.8897 6.67098 16.6989 6.75 16.5 6.75H4.5C4.30109 6.75 4.11032 6.82902 3.96967 6.96967C3.82902 7.11032 3.75 7.30109 3.75 7.5V22.5C3.75 22.6989 3.82902 22.8897 3.96967 23.0303C4.11032 23.171 4.30109 23.25 4.5 23.25H19.5C19.6989 23.25 19.8897 23.171 20.0303 23.0303C20.171 22.8897 20.25 22.6989 20.25 22.5V15C20.25 14.8011 20.329 14.6103 20.4697 14.4697C20.6103 14.329 20.8011 14.25 21 14.25C21.1989 14.25 21.3897 14.329 21.5303 14.4697C21.671 14.6103 21.75 14.8011 21.75 15V22.5C21.75 23.0967 21.5129 23.669 21.091 24.091C20.669 24.5129 20.0967 24.75 19.5 24.75H4.5Z" fill="#E9ECEF"/>
<path d="M12.531 18.531L23.031 8.03097C23.1007 7.96124 23.156 7.87846 23.1938 7.78735C23.2315 7.69624 23.2509 7.59859 23.2509 7.49997C23.2509 7.40135 23.2315 7.3037 23.1938 7.2126C23.156 7.12149 23.1007 7.0387 23.031 6.96897C22.9612 6.89924 22.8785 6.84392 22.7873 6.80619C22.6962 6.76845 22.5986 6.74902 22.5 6.74902C22.4014 6.74902 22.3037 6.76845 22.2126 6.80619C22.1215 6.84392 22.0387 6.89924 21.969 6.96897L12 16.9395L8.03097 12.969C7.96124 12.8992 7.87846 12.8439 7.78735 12.8062C7.69624 12.7684 7.59859 12.749 7.49997 12.749C7.40136 12.749 7.3037 12.7684 7.2126 12.8062C7.12149 12.8439 7.0387 12.8992 6.96897 12.969C6.89924 13.0387 6.84392 13.1215 6.80619 13.2126C6.76845 13.3037 6.74902 13.4014 6.74902 13.5C6.74902 13.5986 6.76845 13.6962 6.80619 13.7873C6.84392 13.8785 6.89924 13.9612 6.96897 14.031L11.469 18.531C11.5386 18.6008 11.6214 18.6562 11.7125 18.694C11.8036 18.7318 11.9013 18.7513 12 18.7513C12.0986 18.7513 12.1963 18.7318 12.2874 18.694C12.3785 18.6562 12.4613 18.6008 12.531 18.531Z" fill="#E9ECEF"/>
<path d="M38.88 8.04V10.3H35.16V22H32.36V10.3H28.64V8.04H38.88ZM47.403 22.14C46.0963 22.14 44.8963 21.8333 43.803 21.22C42.7096 20.6067 41.843 19.76 41.203 18.68C40.563 17.5867 40.243 16.3533 40.243 14.98C40.243 13.62 40.563 12.4 41.203 11.32C41.843 10.2267 42.7096 9.37333 43.803 8.76C44.8963 8.14667 46.0963 7.84 47.403 7.84C48.723 7.84 49.923 8.14667 51.003 8.76C52.0963 9.37333 52.9563 10.2267 53.583 11.32C54.223 12.4 54.543 13.62 54.543 14.98C54.543 16.3533 54.223 17.5867 53.583 18.68C52.9563 19.76 52.0963 20.6067 51.003 21.22C49.9096 21.8333 48.7096 22.14 47.403 22.14ZM47.403 19.64C48.243 19.64 48.983 19.4533 49.623 19.08C50.263 18.6933 50.763 18.1467 51.123 17.44C51.483 16.7333 51.663 15.9133 51.663 14.98C51.663 14.0467 51.483 13.2333 51.123 12.54C50.763 11.8333 50.263 11.2933 49.623 10.92C48.983 10.5467 48.243 10.36 47.403 10.36C46.563 10.36 45.8163 10.5467 45.163 10.92C44.523 11.2933 44.023 11.8333 43.663 12.54C43.303 13.2333 43.123 14.0467 43.123 14.98C43.123 15.9133 43.303 16.7333 43.663 17.44C44.023 18.1467 44.523 18.6933 45.163 19.08C45.8163 19.4533 46.563 19.64 47.403 19.64Z" fill="white"/>
<path d="M61.5061 8.04C62.9728 8.04 64.2594 8.32667 65.3661 8.9C66.4861 9.47333 67.3461 10.2933 67.9461 11.36C68.5594 12.4133 68.8661 13.64 68.8661 15.04C68.8661 16.44 68.5594 17.6667 67.9461 18.72C67.3461 19.76 66.4861 20.5667 65.3661 21.14C64.2594 21.7133 62.9728 22 61.5061 22H56.6261V8.04H61.5061ZM61.4061 19.62C62.8728 19.62 64.0061 19.22 64.8061 18.42C65.6061 17.62 66.0061 16.4933 66.0061 15.04C66.0061 13.5867 65.6061 12.4533 64.8061 11.64C64.0061 10.8133 62.8728 10.4 61.4061 10.4H59.4261V19.62H61.4061ZM77.442 22.14C76.1354 22.14 74.9354 21.8333 73.842 21.22C72.7487 20.6067 71.882 19.76 71.242 18.68C70.602 17.5867 70.282 16.3533 70.282 14.98C70.282 13.62 70.602 12.4 71.242 11.32C71.882 10.2267 72.7487 9.37333 73.842 8.76C74.9354 8.14667 76.1354 7.84 77.442 7.84C78.762 7.84 79.962 8.14667 81.042 8.76C82.1354 9.37333 82.9954 10.2267 83.622 11.32C84.262 12.4 84.582 13.62 84.582 14.98C84.582 16.3533 84.262 17.5867 83.622 18.68C82.9954 19.76 82.1354 20.6067 81.042 21.22C79.9487 21.8333 78.7487 22.14 77.442 22.14ZM77.442 19.64C78.282 19.64 79.022 19.4533 79.662 19.08C80.302 18.6933 80.802 18.1467 81.162 17.44C81.522 16.7333 81.702 15.9133 81.702 14.98C81.702 14.0467 81.522 13.2333 81.162 12.54C80.802 11.8333 80.302 11.2933 79.662 10.92C79.022 10.5467 78.282 10.36 77.442 10.36C76.602 10.36 75.8554 10.5467 75.202 10.92C74.562 11.2933 74.062 11.8333 73.702 12.54C73.342 13.2333 73.162 14.0467 73.162 14.98C73.162 15.9133 73.342 16.7333 73.702 17.44C74.062 18.1467 74.562 18.6933 75.202 19.08C75.8554 19.4533 76.602 19.64 77.442 19.64Z" fill="#E9ECEF"/>
</svg>
