<svg width="30" height="30" viewBox="0 0 30 30" fill="none" xmlns="http://www.w3.org/2000/svg">
<path d="M15 6.5625C12.1523 6.5625 9.84375 8.87109 9.84375 11.7188C9.84375 14.5664 12.1523 16.875 15 16.875C17.8477 16.875 20.1562 14.5664 20.1562 11.7188C20.1562 8.87109 17.8477 6.5625 15 6.5625ZM15 14.0625C13.7074 14.0625 12.6562 13.0107 12.6562 11.7188C12.6562 10.4238 13.7051 9.375 15 9.375C16.2949 9.375 17.3438 10.4262 17.3438 11.7188C17.3438 13.0137 16.2949 14.0625 15 14.0625ZM15 0C6.71484 0 0 6.71484 0 15C0 23.2852 6.71484 30 15 30C23.2852 30 30 23.2852 30 15C30 6.71484 23.2852 0 15 0ZM15 27.1875C12.2619 27.1875 9.74063 26.2687 7.70508 24.7389C8.71875 22.793 10.6875 21.5625 12.9023 21.5625H17.1029C19.3148 21.5625 21.2812 22.7936 22.299 24.7389C20.2617 26.2676 17.7363 27.1875 15 27.1875ZM24.3867 22.7637C22.8047 20.291 20.1094 18.75 17.0977 18.75H12.9023C9.89297 18.75 7.19824 20.2881 5.61328 22.7625C3.86484 20.6543 2.8125 17.9473 2.8125 15C2.8125 8.2793 8.27988 2.8125 15 2.8125C21.7201 2.8125 27.1875 8.27988 27.1875 15C27.1875 17.9473 26.1328 20.6543 24.3867 22.7637Z" fill="#E9ECEF"/>
</svg>
